<svg width="16" height="16" viewBox="0 0 16 16" fill="none" xmlns="http://www.w3.org/2000/svg">
<path fill-rule="evenodd" clip-rule="evenodd" d="M3.6647 4.66671C3.4459 4.30896 3.33334 3.86861 3.33334 3.33337C3.33334 2.2781 4.12691 1.33337 5.33334 1.33337C6.54134 1.33337 7.51552 2.14246 8.00001 3.40926C8.4845 2.14246 9.45868 1.33337 10.6667 1.33337C11.8731 1.33337 12.6667 2.2781 12.6667 3.33337C12.6667 3.86861 12.5541 4.30896 12.3353 4.66671H13.3333C14.0697 4.66671 14.6667 5.26366 14.6667 6.00004V7.33337C14.6667 8.06975 14.0697 8.66671 13.3333 8.66671V13.3334C13.3333 14.0698 12.7364 14.6667 12 14.6667H4.00001C3.26363 14.6667 2.66668 14.0698 2.66668 13.3334V8.66671C1.9303 8.66671 1.33334 8.06975 1.33334 7.33337V6.00004C1.33334 5.26366 1.9303 4.66671 2.66668 4.66671H3.6647ZM7.33334 6.00004H2.66668V7.33337H7.33334V6.00004ZM13.3333 7.33337H8.66668V6.00004H13.3333V7.33337ZM7.33334 13.3334V8.66671H4.00001V13.3334H7.33334ZM12 13.3334H8.66668V8.66671H12V13.3334ZM5.33334 2.66671C4.91978 2.66671 4.66668 2.96802 4.66668 3.33337C4.66668 4.16886 5.34468 4.56612 6.95296 4.6497C6.77421 3.40777 6.10813 2.66671 5.33334 2.66671ZM9.00001 4.6497C9.17875 3.40777 9.84484 2.66671 10.6196 2.66671C11.0332 2.66671 11.2863 2.96802 11.2863 3.33337C11.2863 4.16886 10.6083 4.56612 9.00001 4.6497Z" fill="#9564AA"/>
</svg>
