<?xml version="1.0" encoding="utf-8"?><svg xmlns="http://www.w3.org/2000/svg" xmlns:xlink="http://www.w3.org/1999/xlink"><symbol viewBox="0 0 21 21" id="arrow-right" xmlns="http://www.w3.org/2000/svg">
    <path d="M7.4799 6.51033L10.7728 9.80322L0.187011 9.80322L0.187011 11.8032L10.7728 11.8032L7.4799 15.0961L8.89412 16.5103L14.6012 10.8032L8.89412 5.09612L7.4799 6.51033Z"/>
    <path d="M18.187 0.803222L14.187 0.803222L14.187 2.80322L18.187 2.80322L18.187 18.8032L14.187 18.8032L14.187 20.8032L18.187 20.8032C19.2916 20.8032 20.187 19.9078 20.187 18.8032L20.187 2.80322C20.187 1.69865 19.2916 0.803222 18.187 0.803222Z"/>
</symbol><symbol viewBox="0 0 23 18" id="camera" xmlns="http://www.w3.org/2000/svg">
    <path d="M19.187 7C19.187 7.55228 18.7393 8 18.187 8C17.6347 8 17.187 7.55228 17.187 7C17.187 6.44772 17.6347 6 18.187 6C18.7393 6 19.187 6.44772 19.187 7Z"/>
    <path fill-rule="evenodd" clip-rule="evenodd" d="M6.18701 10C6.18701 12.7614 8.42559 15 11.187 15C13.9484 15 16.187 12.7614 16.187 10C16.187 7.23858 13.9484 5 11.187 5C8.42559 5 6.18701 7.23858 6.18701 10ZM14.187 10C14.187 11.6569 12.8439 13 11.187 13C9.53016 13 8.18701 11.6569 8.18701 10C8.18701 8.34315 9.53016 7 11.187 7C12.8439 7 14.187 8.34315 14.187 10Z"/>
    <path fill-rule="evenodd" clip-rule="evenodd" d="M6.12403 2.84538C6.19488 2.74688 6.27357 2.62631 6.37391 2.46372C6.41056 2.40433 6.5105 2.23944 6.58493 2.11665L6.66881 1.97841C7.4978 0.622387 8.10041 0 9.18701 0H13.187C14.2736 0 14.8762 0.622387 15.7052 1.97841L15.7891 2.11664C15.8635 2.23943 15.9635 2.40433 16.0001 2.46372C16.1005 2.62631 16.1791 2.74688 16.25 2.84538C16.2967 2.91033 16.3375 2.96194 16.3708 3H19.187C20.8439 3 22.187 4.34315 22.187 6V15C22.187 16.6569 20.8439 18 19.187 18H3.18701C1.53016 18 0.187012 16.6569 0.187012 15V6C0.187012 4.34315 1.53016 3 3.18701 3H6.00321C6.0365 2.96194 6.07731 2.91033 6.12403 2.84538ZM3.18701 5C2.63473 5 2.18701 5.44772 2.18701 6V15C2.18701 15.5523 2.63473 16 3.18701 16H19.187C19.7393 16 20.187 15.5523 20.187 15V6C20.187 5.44772 19.7393 5 19.187 5H16.187C15.5227 5 15.0746 4.63641 14.6264 4.01326C14.5233 3.86988 14.4211 3.71332 14.2981 3.51409C14.256 3.44583 14.1466 3.26536 14.0716 3.14152L13.9988 3.02159C13.5465 2.28172 13.2737 2 13.187 2H9.18701C9.10028 2 8.82751 2.28172 8.37521 3.02159L8.30244 3.14152C8.2274 3.26534 8.11793 3.44596 8.07588 3.51409C7.95293 3.71332 7.85076 3.86988 7.74763 4.01326C7.29938 4.63641 6.85135 5 6.18701 5H3.18701Z"/>
</symbol><symbol viewBox="0 0 16 16" id="comment-text" xmlns="http://www.w3.org/2000/svg">
    <path fill-rule="evenodd" clip-rule="evenodd" d="M4.00001 14.5362L8.05787 12H13.3333C14.0697 12 14.6667 11.4031 14.6667 10.6667V2.66671C14.6667 1.93033 14.0697 1.33337 13.3333 1.33337H2.66668C1.9303 1.33337 1.33334 1.93033 1.33334 2.66671V10.6667C1.33334 11.4031 1.9303 12 2.66668 12H4.00001V14.5362ZM7.67548 10.6667L5.33334 12.1305V10.6667H2.66668V2.66671H13.3333V10.6667H7.67548ZM4.66668 8.66671V7.33337H9.33334V8.66671H4.66668ZM4.66668 4.66671V6.00004H10.6667V4.66671H4.66668Z"/>
</symbol><symbol viewBox="0 0 20 18" id="diamond" xmlns="http://www.w3.org/2000/svg">
    <path d="M10 1H15L19 6M10 1L13 6M10 1H5L1 6M10 1L7 6M19 6L10 16M19 6H13M10 16L13 6M10 16L1 6M10 16L7 6M13 6H7M1 6H7" stroke-width="1.5"/>
</symbol><symbol viewBox="0 0 83 70" id="diamond-big" xmlns="http://www.w3.org/2000/svg">
    <path d="M41.5 1H64L82 23.3333M41.5 1L55 23.3333M41.5 1H19L1 23.3333M41.5 1L28 23.3333M82 23.3333L41.5 68M82 23.3333H55M41.5 68L55 23.3333M41.5 68L1 23.3333M41.5 68L28 23.3333M55 23.3333H28M1 23.3333H28" stroke-width="1.5"/>
</symbol><symbol viewBox="0 0 23 17" id="eye" xmlns="http://www.w3.org/2000/svg">
    <path fill-rule="evenodd" clip-rule="evenodd" d="M7.18703 8.8042C7.18703 11.0133 8.9779 12.8042 11.187 12.8042C13.3962 12.8042 15.187 11.0133 15.187 8.8042C15.187 6.59506 13.3962 4.8042 11.187 4.8042C8.9779 4.8042 7.18703 6.59506 7.18703 8.8042ZM13.187 8.8042C13.187 9.90877 12.2916 10.8042 11.187 10.8042C10.0825 10.8042 9.18703 9.90877 9.18703 8.8042C9.18703 7.69963 10.0825 6.8042 11.187 6.8042C12.2916 6.8042 13.187 7.69963 13.187 8.8042Z"/>
    <path fill-rule="evenodd" clip-rule="evenodd" d="M11.187 0.804199C13.9146 0.804199 16.5227 2.23482 18.9533 4.58535C19.7825 5.38725 20.5327 6.24336 21.1931 7.09982C21.5916 7.61664 21.8746 8.02319 22.0295 8.2654L22.3741 8.8042L22.0295 9.343C21.8746 9.5852 21.5916 9.99176 21.1931 10.5086C20.5327 11.365 19.7825 12.2212 18.9533 13.023C16.5227 15.3736 13.9146 16.8042 11.187 16.8042C8.45949 16.8042 5.85136 15.3736 3.42074 13.023C2.59153 12.2212 1.84134 11.365 1.18094 10.5086C0.782441 9.99176 0.499509 9.5852 0.3446 9.343L0 8.8042L0.3446 8.2654C0.499509 8.02319 0.782441 7.61664 1.18094 7.09982C1.84134 6.24336 2.59153 5.38725 3.42074 4.58535C5.85136 2.23482 8.45949 0.804199 11.187 0.804199ZM19.6093 8.32108C19.0046 7.53692 18.3172 6.7524 17.563 6.02305C15.4695 3.99857 13.2921 2.8042 11.187 2.8042C9.08196 2.8042 6.90453 3.99857 4.81108 6.02305C4.05687 6.7524 3.36942 7.53692 2.76478 8.32108C2.63419 8.49043 2.51352 8.65202 2.4032 8.8042C2.51352 8.95638 2.63419 9.11796 2.76478 9.28732C3.36942 10.0715 4.05687 10.856 4.81108 11.5853C6.90453 13.6098 9.08196 14.8042 11.187 14.8042C13.2921 14.8042 15.4695 13.6098 17.563 11.5853C18.3172 10.856 19.0046 10.0715 19.6093 9.28732C19.7399 9.11796 19.8605 8.95638 19.9709 8.8042C19.8605 8.65202 19.7399 8.49043 19.6093 8.32108Z"/>
</symbol><symbol viewBox="0 0 16 16" id="gift" xmlns="http://www.w3.org/2000/svg">
    <path fill-rule="evenodd" clip-rule="evenodd" d="M3.6647 4.66671C3.4459 4.30896 3.33334 3.86861 3.33334 3.33337C3.33334 2.2781 4.12691 1.33337 5.33334 1.33337C6.54134 1.33337 7.51552 2.14246 8.00001 3.40926C8.4845 2.14246 9.45868 1.33337 10.6667 1.33337C11.8731 1.33337 12.6667 2.2781 12.6667 3.33337C12.6667 3.86861 12.5541 4.30896 12.3353 4.66671H13.3333C14.0697 4.66671 14.6667 5.26366 14.6667 6.00004V7.33337C14.6667 8.06975 14.0697 8.66671 13.3333 8.66671V13.3334C13.3333 14.0698 12.7364 14.6667 12 14.6667H4.00001C3.26363 14.6667 2.66668 14.0698 2.66668 13.3334V8.66671C1.9303 8.66671 1.33334 8.06975 1.33334 7.33337V6.00004C1.33334 5.26366 1.9303 4.66671 2.66668 4.66671H3.6647ZM7.33334 6.00004H2.66668V7.33337H7.33334V6.00004ZM13.3333 7.33337H8.66668V6.00004H13.3333V7.33337ZM7.33334 13.3334V8.66671H4.00001V13.3334H7.33334ZM12 13.3334H8.66668V8.66671H12V13.3334ZM5.33334 2.66671C4.91978 2.66671 4.66668 2.96802 4.66668 3.33337C4.66668 4.16886 5.34468 4.56612 6.95296 4.6497C6.77421 3.40777 6.10813 2.66671 5.33334 2.66671ZM9.00001 4.6497C9.17875 3.40777 9.84484 2.66671 10.6196 2.66671C11.0332 2.66671 11.2863 2.96802 11.2863 3.33337C11.2863 4.16886 10.6083 4.56612 9.00001 4.6497Z"/>
</symbol><symbol viewBox="0 0 23 21" id="heart" xmlns="http://www.w3.org/2000/svg">
    <path fill-rule="evenodd" clip-rule="evenodd" d="M15.7402 0.804215C14.2926 0.804199 13.3594 0.975582 12.2897 1.49591C11.8936 1.68855 11.5221 1.92055 11.177 2.19121C10.8452 1.93572 10.4885 1.71438 10.1088 1.52777C9.01833 0.991792 8.03729 0.804199 6.64156 0.804199C2.90345 0.804199 0.187012 3.88206 0.187012 7.87946C0.187012 10.8983 1.88084 13.8144 5.03585 16.6343C6.69191 18.1144 8.80633 19.5791 10.3206 20.3584L11.187 20.8042L12.0534 20.3584C13.5677 19.5791 15.6821 18.1144 17.3382 16.6343C20.4932 13.8144 22.187 10.8983 22.187 7.87946C22.187 3.92437 19.445 0.819461 15.7402 0.804215ZM20.187 7.87946C20.187 10.2446 18.7732 12.6786 16.0007 15.1565C14.4892 16.5075 12.546 17.8576 11.187 18.5659C9.82805 17.8576 7.88483 16.5075 6.37329 15.1565C3.60083 12.6786 2.18701 10.2446 2.18701 7.87946C2.18701 4.92592 4.07065 2.79167 6.64156 2.79167C7.75129 2.79167 8.43514 2.92243 9.22215 3.30925C9.68702 3.53773 10.0979 3.83943 10.4535 4.21645L11.1893 4.99646L11.9185 4.21027C12.2821 3.81814 12.699 3.50958 13.1689 3.28101C13.9329 2.90942 14.574 2.79167 15.7361 2.79167C18.2752 2.80213 20.187 4.96691 20.187 7.87946Z"/>
</symbol><symbol viewBox="0 0 23 22" id="profile" xmlns="http://www.w3.org/2000/svg">
    <path fill-rule="evenodd" clip-rule="evenodd" d="M11.187 14C8.94788 14 7.18701 12.4274 7.18701 9C7.18701 6.75576 8.76611 5 11.187 5C13.6012 5 15.187 6.92158 15.187 9.2C15.187 12.4796 13.4051 14 11.187 14ZM9.18701 9C9.18701 11.2693 10.0052 12 11.187 12C12.3647 12 13.187 11.2984 13.187 9.2C13.187 7.95042 12.4027 7 11.187 7C9.92075 7 9.18701 7.81582 9.18701 9Z"/>
    <path fill-rule="evenodd" clip-rule="evenodd" d="M11.187 22C5.11188 22 0.187012 17.0751 0.187012 11C0.187012 4.92487 5.11188 0 11.187 0C17.2621 0 22.187 4.92487 22.187 11C22.187 17.0751 17.2621 22 11.187 22ZM18.5865 16.1246C19.5956 14.6703 20.187 12.9042 20.187 11C20.187 6.02944 16.1576 2 11.187 2C6.21645 2 2.18701 6.02944 2.18701 11C2.18701 12.9042 2.77839 14.6703 3.78752 16.1246C4.91296 14.6381 7.55761 14 11.187 14C14.8164 14 17.4611 14.6381 18.5865 16.1246ZM17.1517 17.7398C16.859 16.6874 14.7564 16 11.187 16C7.61763 16 5.51502 16.6874 5.22233 17.7398C6.81031 19.1462 8.89895 20 11.187 20C13.4751 20 15.5637 19.1462 17.1517 17.7398Z"/>
</symbol><symbol viewBox="0 0 23 23" id="setting" xmlns="http://www.w3.org/2000/svg">
    <path fill-rule="evenodd" clip-rule="evenodd" d="M11.187 15.8042C8.97787 15.8042 7.18701 14.0133 7.18701 11.8042C7.18701 9.59506 8.97787 7.8042 11.187 7.8042C13.3962 7.8042 15.187 9.59506 15.187 11.8042C15.187 14.0133 13.3962 15.8042 11.187 15.8042ZM13.187 11.8042C13.187 12.9088 12.2916 13.8042 11.187 13.8042C10.0824 13.8042 9.18701 12.9088 9.18701 11.8042C9.18701 10.6996 10.0824 9.8042 11.187 9.8042C12.2916 9.8042 13.187 10.6996 13.187 11.8042Z"/>
    <path fill-rule="evenodd" clip-rule="evenodd" d="M17.8432 20.7012L20.0604 18.484L19.2795 15.6472L19.6197 14.8347L22.187 13.386V10.2506L19.627 8.79593L19.2925 7.98487L20.0832 5.14655L17.8644 2.93103L15.0273 3.71168L14.2166 3.37177L12.7678 0.804199H9.63245L8.17773 3.36424L7.36686 3.69866L4.52899 2.90701L2.31371 5.12229L3.09449 7.95987L2.75459 8.77054L0.187012 10.2193V13.3538L2.74475 14.8118L3.07953 15.6235L2.28898 18.4614L4.5051 20.6775L7.34269 19.8967L8.15345 20.2367L9.60228 22.8032H12.7369L14.1937 20.2454L15.0053 19.9107L17.8432 20.7012ZM18.0397 13.4298L17.1679 15.512L17.8232 17.8928L17.2548 18.4612L14.879 17.7993L12.796 18.6584L11.5743 20.8032H10.7699L9.55842 18.6571L7.47856 17.785L5.09648 18.4404L4.52904 17.873L5.19087 15.4972L4.33183 13.4143L2.18701 12.1918V11.3872L4.33411 10.1757L5.20621 8.09575L4.55076 5.71366L5.11702 5.14741L7.49277 5.81015L9.57656 4.95075L10.7963 2.8042H11.5999L12.8115 4.9513L14.8914 5.82339L17.274 5.16782L17.8428 5.73586L17.1811 8.11116L18.0405 10.1948L20.187 11.4145V12.2181L18.0397 13.4298Z"/>
</symbol><symbol viewBox="0 0 12 8" id="tick" xmlns="http://www.w3.org/2000/svg">
    <path d="M1 3.57143L4.63636 7L11 1" stroke-width="2" stroke-linecap="round" stroke-linejoin="round"/>
</symbol></svg>