<?xml version="1.0" encoding="utf-8"?><svg viewBox="0 0 83 70" xmlns="http://www.w3.org/2000/svg" xmlns:xlink="http://www.w3.org/1999/xlink"><style>:root>svg{display:none}:root>svg:target{display:block}</style><svg fill="none" viewBox="0 0 21 21" id="arrow-right" xmlns="http://www.w3.org/2000/svg">
    <path d="m7.48 6.51 3.293 3.293H.187v2h10.586L7.48 15.096l1.414 1.414 5.707-5.707-5.707-5.707L7.48 6.51Z" fill="#9564AA"/>
    <path d="M18.187.803h-4v2h4v16h-4v2h4a2 2 0 0 0 2-2v-16a2 2 0 0 0-2-2Z" fill="#9564AA"/>
</svg><svg fill="none" viewBox="0 0 23 18" id="camera" xmlns="http://www.w3.org/2000/svg">
    <path d="M19.187 7a1 1 0 1 1-2 0 1 1 0 0 1 2 0Z" fill="#9564AA"/>
    <path fill-rule="evenodd" clip-rule="evenodd" d="M6.187 10a5 5 0 1 0 10 0 5 5 0 0 0-10 0Zm8 0a3 3 0 1 1-6 0 3 3 0 0 1 6 0Z" fill="#9564AA"/>
    <path fill-rule="evenodd" clip-rule="evenodd" d="M6.124 2.845c.07-.098.15-.219.25-.381l.21-.347.085-.139C7.498.622 8.1 0 9.187 0h4c1.087 0 1.69.622 2.518 1.978l.084.139.211.347c.1.162.18.283.25.381.047.065.087.117.12.155h2.817a3 3 0 0 1 3 3v9a3 3 0 0 1-3 3h-16a3 3 0 0 1-3-3V6a3 3 0 0 1 3-3h2.816c.034-.038.074-.09.121-.155ZM3.187 5a1 1 0 0 0-1 1v9a1 1 0 0 0 1 1h16a1 1 0 0 0 1-1V6a1 1 0 0 0-1-1h-3c-.664 0-1.112-.364-1.56-.987a8.42 8.42 0 0 1-.329-.499 82.367 82.367 0 0 1-.226-.372l-.073-.12C13.546 2.282 13.274 2 13.187 2h-4c-.087 0-.36.282-.812 1.022l-.073.12-.226.372c-.123.2-.225.356-.328.5C7.299 4.635 6.85 5 6.187 5h-3Z" fill="#9564AA"/>
</svg><svg fill="none" viewBox="0 0 16 16" id="comment-text" xmlns="http://www.w3.org/2000/svg">
    <path fill-rule="evenodd" clip-rule="evenodd" d="M4 14.536 8.058 12h5.275c.737 0 1.334-.597 1.334-1.333v-8c0-.737-.597-1.334-1.334-1.334H2.667c-.737 0-1.334.597-1.334 1.334v8c0 .736.597 1.333 1.334 1.333H4v2.536Zm3.675-3.87L5.333 12.13v-1.463H2.667v-8h10.666v8H7.675Zm-3.008-2V7.334h4.666v1.334H4.667Zm0-4V6h6V4.667h-6Z" fill="#9564AA"/>
</svg><svg fill="none" viewBox="0 0 20 18" id="diamond" xmlns="http://www.w3.org/2000/svg">
    <path d="M10 1h5l4 5m-9-5 3 5m-3-5H5L1 6m9-5L7 6m12 0-9 10m9-10h-6m-3 10 3-10m-3 10L1 6m9 10L7 6m6 0H7M1 6h6" stroke="#FFCF2D" stroke-width="1.5"/>
</svg><svg fill="none" viewBox="0 0 83 70" id="diamond-big" xmlns="http://www.w3.org/2000/svg">
    <path d="M41.5 1H64l18 22.333M41.5 1 55 23.333M41.5 1H19L1 23.333M41.5 1 28 23.333m54 0L41.5 68M82 23.333H55M41.5 68 55 23.333M41.5 68 1 23.333M41.5 68 28 23.333m27 0H28m-27 0h27" stroke="#FFCF2D" stroke-width="1.5"/>
</svg><svg fill="none" viewBox="0 0 23 17" id="eye" xmlns="http://www.w3.org/2000/svg">
    <path fill-rule="evenodd" clip-rule="evenodd" d="M7.187 8.804a4 4 0 1 0 8 0 4 4 0 0 0-8 0Zm6 0a2 2 0 1 1-4 0 2 2 0 0 1 4 0Z" fill="#9564AA"/>
    <path fill-rule="evenodd" clip-rule="evenodd" d="M11.187.804c2.728 0 5.336 1.43 7.766 3.781.83.802 1.58 1.658 2.24 2.515.399.517.682.923.836 1.165l.345.54-.345.538c-.154.242-.437.649-.836 1.166-.66.856-1.41 1.712-2.24 2.514-2.43 2.35-5.038 3.781-7.766 3.781-2.728 0-5.336-1.43-7.766-3.781a23.303 23.303 0 0 1-2.24-2.514 17.493 17.493 0 0 1-.836-1.166L0 8.804l.345-.539C.5 8.023.782 7.617 1.18 7.1c.66-.857 1.41-1.713 2.24-2.515 2.43-2.35 5.038-3.78 7.766-3.78Zm8.422 7.517a21.334 21.334 0 0 0-2.046-2.298c-2.093-2.024-4.27-3.219-6.376-3.219-2.105 0-4.282 1.195-6.376 3.219a21.326 21.326 0 0 0-2.408 2.781 21.32 21.32 0 0 0 2.408 2.781c2.094 2.025 4.271 3.22 6.376 3.22 2.105 0 4.283-1.195 6.376-3.22a21.327 21.327 0 0 0 2.408-2.78c-.11-.153-.231-.315-.362-.484Z" fill="#9564AA"/>
</svg><svg fill="none" viewBox="0 0 16 16" id="gift" xmlns="http://www.w3.org/2000/svg">
    <path fill-rule="evenodd" clip-rule="evenodd" d="M3.665 4.667c-.22-.358-.332-.798-.332-1.334 0-1.055.794-2 2-2 1.208 0 2.183.81 2.667 2.076.485-1.267 1.459-2.076 2.667-2.076 1.206 0 2 .945 2 2 0 .536-.113.976-.332 1.334h.998c.737 0 1.334.597 1.334 1.333v1.333c0 .737-.597 1.334-1.334 1.334v4.666c0 .737-.597 1.334-1.333 1.334H4a1.333 1.333 0 0 1-1.333-1.334V8.667a1.333 1.333 0 0 1-1.334-1.334V6c0-.736.597-1.333 1.334-1.333h.998ZM7.333 6H2.667v1.333h4.666V6Zm6 1.333H8.667V6h4.666v1.333Zm-6 6V8.667H4v4.666h3.333Zm4.667 0H8.667V8.667H12v4.666ZM5.333 2.667c-.413 0-.666.301-.666.666 0 .836.678 1.233 2.286 1.317-.179-1.242-.845-1.983-1.62-1.983ZM9 4.65c.179-1.242.845-1.983 1.62-1.983.413 0 .666.301.666.666 0 .836-.678 1.233-2.286 1.317Z" fill="#9564AA"/>
</svg><svg fill="none" viewBox="0 0 23 21" id="heart" xmlns="http://www.w3.org/2000/svg">
    <path fill-rule="evenodd" clip-rule="evenodd" d="M15.74.804c-1.447 0-2.38.172-3.45.692a6.175 6.175 0 0 0-1.113.695 6.306 6.306 0 0 0-1.068-.663C9.019.992 8.037.804 6.642.804 2.903.804.187 3.882.187 7.88c0 3.02 1.694 5.935 4.849 8.755 1.656 1.48 3.77 2.945 5.285 3.724l.866.446.866-.446c1.515-.779 3.63-2.244 5.285-3.724 3.155-2.82 4.849-5.736 4.849-8.755 0-3.955-2.742-7.06-6.447-7.075Zm4.447 7.075c0 2.366-1.414 4.8-4.186 7.277-1.512 1.351-3.455 2.702-4.814 3.41-1.359-.708-3.302-2.058-4.814-3.41-2.772-2.477-4.186-4.911-4.186-7.277 0-2.953 1.884-5.087 4.455-5.087 1.11 0 1.793.13 2.58.517.465.229.876.53 1.232.907l.735.78.73-.786c.363-.392.78-.7 1.25-.929.764-.372 1.405-.49 2.567-.49 2.54.011 4.451 2.176 4.451 5.088Z" fill="#9564AA"/>
</svg><svg fill="none" viewBox="0 0 23 22" id="profile" xmlns="http://www.w3.org/2000/svg">
    <path fill-rule="evenodd" clip-rule="evenodd" d="M11.187 14c-2.24 0-4-1.573-4-5 0-2.244 1.58-4 4-4 2.414 0 4 1.922 4 4.2 0 3.28-1.782 4.8-4 4.8Zm-2-5c0 2.27.818 3 2 3 1.178 0 2-.702 2-2.8 0-1.25-.784-2.2-2-2.2-1.266 0-2 .816-2 2Z" fill="#9564AA"/>
    <path fill-rule="evenodd" clip-rule="evenodd" d="M11.187 22c-6.075 0-11-4.925-11-11s4.925-11 11-11 11 4.925 11 11-4.925 11-11 11Zm7.4-5.875a9 9 0 1 0-14.799 0C4.913 14.638 7.558 14 11.187 14c3.63 0 6.274.638 7.4 2.125Zm-1.435 1.615c-.293-1.053-2.396-1.74-5.965-1.74-3.57 0-5.672.687-5.965 1.74A8.966 8.966 0 0 0 11.187 20a8.966 8.966 0 0 0 5.965-2.26Z" fill="#9564AA"/>
</svg><svg fill="none" viewBox="0 0 23 23" id="setting" xmlns="http://www.w3.org/2000/svg">
    <path fill-rule="evenodd" clip-rule="evenodd" d="M11.187 15.804a4 4 0 1 1 0-8 4 4 0 0 1 0 8Zm2-4a2 2 0 1 1-4 0 2 2 0 0 1 4 0Z" fill="#9564AA"/>
    <path fill-rule="evenodd" clip-rule="evenodd" d="m17.843 20.701 2.217-2.217-.78-2.837.34-.812 2.567-1.449v-3.135l-2.56-1.455-.334-.811.79-2.838-2.219-2.216-2.837.78-.81-.34-1.45-2.567H9.633l-1.454 2.56-.811.335-2.838-.792-2.215 2.215.78 2.838-.34.81-2.567 1.45v3.134l2.558 1.458.335.812-.791 2.837 2.216 2.216 2.838-.78.81.34 1.45 2.566h3.134l1.457-2.558.811-.334 2.838.79Zm.197-7.271-.872 2.082.655 2.38-.568.57-2.376-.663-2.083.86-1.222 2.144h-.804l-1.212-2.146-2.08-.872-2.382.655-.567-.567.662-2.376-.86-2.083-2.144-1.222v-.805l2.147-1.211.872-2.08-.655-2.382.566-.567 2.376.663 2.084-.86 1.22-2.146h.803l1.212 2.147 2.08.872 2.382-.655.569.568-.662 2.375.86 2.084 2.146 1.22v.803L18.04 13.43Z" fill="#9564AA"/>
</svg><svg fill="none" viewBox="0 0 12 8" id="tick" xmlns="http://www.w3.org/2000/svg">
    <path d="M1 3.571 4.636 7 11 1" stroke="#fff" stroke-width="2" stroke-linecap="round" stroke-linejoin="round"/>
</svg></svg>